<svg xmlns="http://www.w3.org/2000/svg" xmlns:xlink="http://www.w3.org/1999/xlink" viewBox="0 0 328.54 358.97"><defs><style>.cls-1,.cls-17{fill:#6abdc3;}.cls-1,.cls-2,.cls-3,.cls-5{clip-rule:evenodd;}.cls-2,.cls-20{fill:#e4645d;}.cls-22,.cls-3{fill:#eabc60;}.cls-4{fill:#b7cd6a;}.cls-13,.cls-5{fill:none;}.cls-6{isolation:isolate;}.cls-7{fill:#878787;}.cls-8{fill:#b76d22;}.cls-9{fill:#fff;}.cls-10{fill:#f4f1ed;}.cls-11{fill:#71380f;}.cls-12{fill:#975315;}.cls-14{fill:#e0dcd6;}.cls-15{fill:#34312e;}.cls-16{fill:#524e4a;}.cls-17,.cls-20,.cls-22{fill-rule:evenodd;}.cls-18{clip-path:url(#clip-path);}.cls-19{fill:#d3d3d3;mix-blend-mode:multiply;}.cls-21{clip-path:url(#clip-path-2);}.cls-23{clip-path:url(#clip-path-3);}.cls-24{clip-path:url(#clip-path-4);}.cls-25{clip-path:url(#clip-path-5);}.cls-26{clip-path:url(#clip-path-6);}.cls-27{clip-path:url(#clip-path-7);}.cls-28{clip-path:url(#clip-path-8);}</style><clipPath id="clip-path"><path class="cls-1" d="M74.28,305.2c10,0,18.16-8.79,18.16-19.57s-8.16-19.56-18.16-19.56-18.15,8.79-18.15,19.56S64.29,305.2,74.28,305.2Z"/></clipPath><clipPath id="clip-path-2"><path class="cls-2" d="M241,144.46c10,0,18.15-8.79,18.15-19.57S251,105.33,241,105.33s-18.16,8.79-18.16,19.56S231,144.46,241,144.46Z"/></clipPath><clipPath id="clip-path-3"><path class="cls-3" d="M42.86,210.59c10,0,18.15-8.79,18.15-19.56s-8.16-19.57-18.15-19.57S24.71,180.25,24.71,191,32.86,210.59,42.86,210.59Z"/></clipPath><clipPath id="clip-path-4"><path class="cls-2" d="M146.4,328.91c10,0,18.16-8.78,18.16-19.56s-8.16-19.57-18.16-19.57-18.15,8.79-18.15,19.57S136.41,328.91,146.4,328.91Z"/></clipPath><clipPath id="clip-path-5"><path class="cls-2" d="M146.4,98.4c10,0,18.16-8.78,18.16-19.56S156.4,59.27,146.4,59.27s-18.15,8.79-18.15,19.57S136.41,98.4,146.4,98.4Z"/></clipPath><clipPath id="clip-path-6"><ellipse class="cls-4" cx="222.82" cy="293.86" rx="18.15" ry="19.57"/></clipPath><clipPath id="clip-path-7"><path class="cls-1" d="M65.35,131.76c10,0,18.16-8.79,18.16-19.57S75.35,92.63,65.35,92.63,47.2,101.41,47.2,112.19,55.36,131.76,65.35,131.76Z"/></clipPath><clipPath id="clip-path-8"><path class="cls-5" d="M255.68,223c10,0,18.15-8.79,18.15-19.57s-8.15-19.56-18.15-19.56-18.15,8.79-18.15,19.56S245.69,223,255.68,223Z"/></clipPath></defs><g class="cls-6"><g id="Layer_1" data-name="Layer 1"><path class="cls-7" d="M205.35,15.22h30.43a108,108,0,0,1,108,108v112.6a108,108,0,0,1-108,108h-143a108,108,0,0,1-108-108v0A220.57,220.57,0,0,1,205.35,15.22Z" transform="translate(343.76 15.22) rotate(90)"/><path class="cls-8" d="M143.71,233.49l1.3-21.82L139.83,201l-4.15,13-.4,11.41A20.49,20.49,0,0,0,143.71,233.49Z"/><path class="cls-9" d="M143.71,233.49a20.49,20.49,0,0,1-8.43-8.06l-.48,13.86-7,6,5,7.55s9-3,9.1-3.5c1.26-7.15,1.46-9.24,1.46-9.24Z"/><path class="cls-8" d="M179,233.49l-1.3-21.82L183.24,201l3.81,13,.4,11.41A20.41,20.41,0,0,1,179,233.49Z"/><path class="cls-9" d="M179,233.49a20.41,20.41,0,0,0,8.42-8.06l.49,13.86,7,6-5,7.55s-9-3-9.09-3.5c-1.26-7.15-1.46-9.24-1.46-9.24Z"/><path class="cls-10" d="M183.24,201l-4-16.09,1.15-12.73H142.86L144,185,139.83,201s1.72,20.13,4.76,24.75S161.37,232,161.37,232s14.72-2.22,17.11-6.21S183.24,201,183.24,201Z"/><path class="cls-11" d="M178.8,130.41l-4.66.08s-4.06,54.77-2.52,65.09c.06.34,43.91-16.72,43.91-16.72Z"/><path class="cls-12" d="M178.8,130.41l14.52,6.12s23.4,35.59,23.4,42.61-19.43,42.3-31.75,40.11C171.49,216.86,178.8,130.41,178.8,130.41Z"/><path class="cls-12" d="M134.65,127.77l-19.25,2s-27,27.79-27.65,36.59,9.47,44.59,19,45.55S134.65,127.77,134.65,127.77Z"/><path class="cls-9" d="M134.65,127.77s20.43-7.34,39.49,2.72l1.88,9.45v28.71l1.29,25.51-17.76,25.09-48-6.39-9.53-31.16,25.84-34.9-.21-10.13Z"/><path class="cls-13" d="M153.34,122.12c-.08-.16-.66.95-1.53,2.82l1.56.06A18.57,18.57,0,0,0,153.34,122.12Z"/><path class="cls-8" d="M151.81,124.94a48.35,48.35,0,0,0-17.16,2.83l-7.33,8.76.22,10.23-8.17,11.56,14.88-5.08S148.19,132.7,151.81,124.94Z"/><path class="cls-8" d="M177.48,141.63l-3.34-11.14A49.15,49.15,0,0,0,153.37,125c-.19,8-2.75,29.35-2.75,29.35s17.17,9.51,25.4,14.3l.93-17.37Z"/><polygon class="cls-14" points="132.73 208.95 133.4 199 132.38 198.92 131.72 208.73 111.63 212.86 114.9 213.29 131.91 209.82 154.78 218.61 159.57 219.25 132.73 208.95"/><path class="cls-15" d="M133.2,204.24c14.15,1.44,26.68-19.28,22.36-28.84s-33.72-12.56-39.55-4S119.05,202.8,133.2,204.24Z"/><path class="cls-15" d="M164,144.88c0-1,1.45-4.74,4.72-4.74s4.73,7,4.73,7-3.94,1.71-5.64,1.12S164,145.87,164,144.88Z"/><path class="cls-15" d="M128.05,141.85s2.36-6,5.38-6,3,4.51,2.95,5.26-3.35,2.47-5.12,2.25A7.44,7.44,0,0,1,128.05,141.85Z"/><path class="cls-16" d="M125.93,171.79c0-1.21,5.2-2,9.88-1.51,4.84.54,9.14,2.45,8.81,3.24C144,175.08,125.93,174.26,125.93,171.79Z"/><path class="cls-17" d="M74.28,305.2c10,0,18.16-8.79,18.16-19.57s-8.16-19.56-18.16-19.56-18.15,8.79-18.15,19.56S64.29,305.2,74.28,305.2Z"/><g class="cls-18"><path class="cls-19" d="M103,302.05l-.38-.23a.64.64,0,0,0-.28-.48l-.38-.23a.61.61,0,0,0-.28-.48l-.38-.23a.58.58,0,0,0-.28-.48l-.15-.09a5.62,5.62,0,0,0-.84-1.2,4.4,4.4,0,0,0-.38-.37,3.17,3.17,0,0,0-.28-.34,4.4,4.4,0,0,0-.38-.37,3.17,3.17,0,0,0-.28-.34,4.4,4.4,0,0,0-.38-.37,3.17,3.17,0,0,0-.28-.34l-.38-.38c-.09-.11-.18-.23-.28-.33s-.25-.26-.38-.38-.18-.23-.28-.33a4.54,4.54,0,0,0-.38-.38c-.09-.11-.18-.23-.28-.33a3.41,3.41,0,0,0-.38-.38l-.27-.34c-.13-.13-.25-.25-.39-.37l-.27-.34c-.13-.13-.25-.25-.39-.37s-.17-.23-.27-.34-.25-.25-.39-.37-.17-.23-.27-.34a4.59,4.59,0,0,0-.39-.37c-.09-.11-.17-.23-.27-.34s-.25-.25-.38-.37-.18-.23-.28-.34-.25-.25-.38-.37-.18-.23-.28-.34-.25-.25-.38-.37-.18-.23-.28-.34-.25-.25-.38-.37-.18-.23-.28-.34a4.4,4.4,0,0,0-.38-.37c-.09-.12-.18-.23-.28-.34a4.4,4.4,0,0,0-.38-.37,3.17,3.17,0,0,0-.28-.34,4.4,4.4,0,0,0-.38-.37,3.17,3.17,0,0,0-.28-.34l-.38-.38c-.09-.11-.18-.23-.28-.33l-.38-.38c-.09-.11-.18-.23-.28-.33a4.54,4.54,0,0,0-.38-.38l-.27-.33a4.64,4.64,0,0,0-.39-.38l-.27-.34c-.13-.13-.25-.25-.39-.37s-.17-.23-.27-.34a4.59,4.59,0,0,0-.39-.37c-.09-.11-.17-.23-.27-.34s-.25-.25-.38-.37-.18-.23-.28-.34-.25-.25-.38-.37-.18-.23-.28-.34-.25-.25-.38-.37-.18-.23-.28-.34-.25-.25-.38-.37-.18-.23-.28-.34-.25-.25-.38-.37-.18-.23-.28-.34a4.94,4.94,0,0,0-7.35,0,5.82,5.82,0,0,0-1.53,4,6,6,0,0,0,.11,1.12,8.39,8.39,0,0,0,.44,1.58l-1.07-.23a29.77,29.77,0,0,1-5-1.8.56.56,0,0,0-.75.34.69.69,0,0,0,0,.24,10.2,10.2,0,0,0,2,5.64,11.7,11.7,0,0,0,1.13,1.3c.21.24.43.48.66.71s.43.48.66.71.37.42.57.62a7.34,7.34,0,0,1-3.33,2.47,6.16,6.16,0,0,1-.65.18.63.63,0,0,0-.45.74.58.58,0,0,0,.47.48h0l.19,0a.67.67,0,0,0,0,.2.61.61,0,0,0,.47.49h0l.19,0a.67.67,0,0,0,0,.2.61.61,0,0,0,.46.49h0l.2,0a.6.6,0,0,0,0,.19.61.61,0,0,0,.46.49h0l.2,0a.61.61,0,0,0,0,.19.61.61,0,0,0,.46.49h0l.2,0a.61.61,0,0,0,0,.19.6.6,0,0,0,.46.49h0l.2,0a.41.41,0,0,0,0,.19.6.6,0,0,0,.46.49h0l.2,0a.41.41,0,0,0,0,.19.6.6,0,0,0,.46.49h0l.19,0a.61.61,0,0,0,0,.19.59.59,0,0,0,.46.49h0l.19,0a1.33,1.33,0,0,0,0,.2.6.6,0,0,0,.47.48h0l.19,0a1.33,1.33,0,0,0,0,.2.6.6,0,0,0,.47.48h0a1.25,1.25,0,0,0,.19,0,1.33,1.33,0,0,0,0,.2.6.6,0,0,0,.47.48h0a1.25,1.25,0,0,0,.19,0,.67.67,0,0,0,0,.2.6.6,0,0,0,.47.48h0a1.25,1.25,0,0,0,.19,0,.67.67,0,0,0,0,.2.6.6,0,0,0,.47.48h0a1.25,1.25,0,0,0,.19,0,.67.67,0,0,0,0,.2A.6.6,0,0,0,76,306h0l.19,0a.67.67,0,0,0,0,.2.58.58,0,0,0,.47.48h0l.19,0a.67.67,0,0,0,0,.2.61.61,0,0,0,.46.49h0l.2,0a.67.67,0,0,0,0,.2.61.61,0,0,0,.46.49h0l.2,0a.67.67,0,0,0,0,.2.61.61,0,0,0,.46.49h0l.2,0a.41.41,0,0,0,0,.19.61.61,0,0,0,.46.49h0l.2,0a.41.41,0,0,0,0,.19.6.6,0,0,0,.46.49h0l.19,0a.61.61,0,0,0,0,.19.6.6,0,0,0,.46.49h0l.19,0a.61.61,0,0,0,0,.19.59.59,0,0,0,.46.49h0l.19,0a1.21,1.21,0,0,0,0,.19.6.6,0,0,0,.47.49h0l.19,0a1.33,1.33,0,0,0,0,.2.6.6,0,0,0,.47.48h0l.19,0a1.33,1.33,0,0,0,0,.2.6.6,0,0,0,.47.48h0l.19,0a.67.67,0,0,0,0,.2.6.6,0,0,0,.47.48h0a1.25,1.25,0,0,0,.19,0,.67.67,0,0,0,0,.2.6.6,0,0,0,.47.48h0a1.25,1.25,0,0,0,.19,0,.67.67,0,0,0,0,.2.6.6,0,0,0,.47.48h0a1.08,1.08,0,0,0,.19,0,.67.67,0,0,0,0,.2.6.6,0,0,0,.47.48h0a12.45,12.45,0,0,0,10.85-3.15,14.46,14.46,0,0,0,4.64-8.49c.06-.33.1-.66.13-1l1.51-.92a.65.65,0,0,0,.3-.55A.64.64,0,0,0,103,302.05Z"/><path class="cls-9" d="M72.92,277.31a4.94,4.94,0,0,1,7.35,0,5.68,5.68,0,0,1,1.32,2.41l1.65,1a.64.64,0,0,1,.29.54.65.65,0,0,1-.3.55l-1.51.93c0,.33-.07.66-.13,1A14.5,14.5,0,0,1,77,292.23a12.93,12.93,0,0,1-8.57,3.37,12.77,12.77,0,0,1-2.29-.22h0a.6.6,0,0,1-.47-.48.63.63,0,0,1,.45-.74,6.16,6.16,0,0,0,.65-.18,7.42,7.42,0,0,0,3.58-2.8,12.13,12.13,0,0,1-3.27-3,10.2,10.2,0,0,1-2-5.64.69.69,0,0,1,0-.24.56.56,0,0,1,.75-.34,30.67,30.67,0,0,0,5,1.8l1.07.23a8.39,8.39,0,0,1-.44-1.58,6,6,0,0,1-.1-1.12,5.81,5.81,0,0,1,1.52-4Zm5.41,2.09a1.21,1.21,0,0,0-1.16,1.25,1.46,1.46,0,0,0,.09.48,1.36,1.36,0,0,0,.25.4,1.41,1.41,0,0,0,.37.27,1.14,1.14,0,0,0,.45.1,1.25,1.25,0,0,0,0-2.5Z"/></g><path class="cls-20" d="M241,144.46c10,0,18.15-8.79,18.15-19.57S251,105.33,241,105.33s-18.16,8.79-18.16,19.56S231,144.46,241,144.46Z"/><g class="cls-21"><path class="cls-19" d="M268.38,142.69a15894869125709.91,15894869125709.91,0,0,0-1.32-1.42,31789738251593,31789738251593,0,0,1-1.32-1.42,2.49,2.49,0,0,0-.66-.71,2.36,2.36,0,0,0-.66-.71,2.36,2.36,0,0,0-.66-.71v0a3.65,3.65,0,0,0-.49-1.64,1.42,1.42,0,0,0-.56-.51,1.86,1.86,0,0,0-.1-.2,1.42,1.42,0,0,0-.56-.51,1.86,1.86,0,0,0-.1-.2,1.35,1.35,0,0,0-.56-.51,1.86,1.86,0,0,0-.1-.2,1.35,1.35,0,0,0-.56-.51,1.24,1.24,0,0,0-.1-.2,1.29,1.29,0,0,0-.56-.51,1.24,1.24,0,0,0-.1-.2,1.29,1.29,0,0,0-.56-.51,1.24,1.24,0,0,0-.1-.2,1.32,1.32,0,0,0-.55-.51c0-.07-.07-.14-.1-.2a1.41,1.41,0,0,0-.56-.51,1.86,1.86,0,0,0-.1-.2,1.41,1.41,0,0,0-.56-.51c0-.07-.06-.15-.1-.21a1.45,1.45,0,0,0-.56-.5c0-.07-.06-.15-.1-.21a1.45,1.45,0,0,0-.56-.5c0-.07-.06-.15-.1-.21a1.39,1.39,0,0,0-.56-.5c0-.07-.06-.15-.1-.21a1.49,1.49,0,0,0-.56-.51c0-.06-.06-.14-.1-.2a1.49,1.49,0,0,0-.56-.51,1.86,1.86,0,0,0-.1-.2,1.42,1.42,0,0,0-.56-.51,1.86,1.86,0,0,0-.1-.2,1.35,1.35,0,0,0-.56-.51,1.86,1.86,0,0,0-.1-.2,1.35,1.35,0,0,0-.56-.51,1.86,1.86,0,0,0-.1-.2,1.35,1.35,0,0,0-.56-.51,1.86,1.86,0,0,0-.1-.2,1.35,1.35,0,0,0-.56-.51,1.86,1.86,0,0,0-.1-.2,1.29,1.29,0,0,0-.56-.51,1.24,1.24,0,0,0-.1-.2,1.32,1.32,0,0,0-.55-.51c0-.07-.06-.14-.1-.2a1.41,1.41,0,0,0-.56-.51c0-.07-.06-.14-.1-.2a1.41,1.41,0,0,0-.56-.51c0-.07-.06-.14-.1-.2a1.41,1.41,0,0,0-.56-.51c0-.07-.06-.15-.1-.21a1.39,1.39,0,0,0-.56-.5c0-.07-.06-.15-.1-.21a1.39,1.39,0,0,0-.56-.5c0-.07-.06-.15-.1-.21a1.39,1.39,0,0,0-.56-.5c0-.07-.06-.15-.1-.21a1.39,1.39,0,0,0-.56-.5,1.36,1.36,0,0,0-.1-.21,1.49,1.49,0,0,0-.56-.51,1.86,1.86,0,0,0-.1-.2,1.21,1.21,0,0,0-1.06-.62.61.61,0,0,0-.58.62l-.29,1.87c-.29.93-1.87,2.47-2.31,3.25-.89,1.58-.76,2.35-1.73,2.35-.32,0-.58.39-.58.85v.15a.54.54,0,0,0-.41-.2h-.08v-.08a.61.61,0,0,0-.58-.63h-.08v-.09a.6.6,0,0,0-.58-.62h-2.31a.6.6,0,0,0-.58.62v10a.6.6,0,0,0,.58.62h.08v.09a.6.6,0,0,0,.58.62h.08v.09a.6.6,0,0,0,.57.62H235V135a.6.6,0,0,0,.57.62h.09v.09a.6.6,0,0,0,.57.62h.09v.09a.6.6,0,0,0,.57.62h.09v.09a.6.6,0,0,0,.57.63h.08v.08a.61.61,0,0,0,.58.63h.08v.08a.61.61,0,0,0,.58.63h.08v.08a.61.61,0,0,0,.58.63h.08V140a.6.6,0,0,0,.58.62h.08v.09a.6.6,0,0,0,.58.62h.08v.09a.6.6,0,0,0,.58.62h.08v.09a.6.6,0,0,0,.58.62h.08v.09a.6.6,0,0,0,.58.62h.08v.09a.6.6,0,0,0,.58.62h.08v.09a.6.6,0,0,0,.57.62h.09V145a.6.6,0,0,0,.57.62h.09v.09a.6.6,0,0,0,.57.62h.09v.09a.6.6,0,0,0,.57.62h.08v.09a.6.6,0,0,0,.58.62h.08v.09a.61.61,0,0,0,.58.63h.08v.08a.61.61,0,0,0,.58.63h.08v.08a.61.61,0,0,0,.58.63h.08v.08a.61.61,0,0,0,.58.63h.08v.09a.6.6,0,0,0,.58.62h.08v.09a.6.6,0,0,0,.58.62h.08v.09a.6.6,0,0,0,.58.62h.08v.09a.6.6,0,0,0,.58.62h.08v.09a.6.6,0,0,0,.58.62H255a.6.6,0,0,0,.57-.62V151.8a.54.54,0,0,0,.42.27h.1c.05.4.27.71.56.71h.1c0,.4.27.71.56.71a11.62,11.62,0,0,1,3.41.56,3.36,3.36,0,0,0,.63.06h5.78a2.41,2.41,0,0,0,2.31-2.49v-6.85A2.57,2.57,0,0,0,268.38,142.69Z"/><path class="cls-9" d="M240.93,132.73a11.77,11.77,0,0,0-3.42-.56c-.32,0-.58-.38-.58-.85v-8.27c0-.46.26-.85.58-.85,1,0,.84-.77,1.73-2.35.44-.78,2-2.32,2.31-3.25l.29-1.87a.61.61,0,0,1,.58-.62,1.2,1.2,0,0,1,1.06.62c.84,1.26.57,4,.1,6.23h3.75a2.41,2.41,0,0,1,2.31,2.49v6.85a2.41,2.41,0,0,1-2.31,2.49h-5.78a3.18,3.18,0,0,1-.62-.06Zm-8-11.15h2.31a.6.6,0,0,1,.58.62v10a.6.6,0,0,1-.58.62h-2.31a.6.6,0,0,1-.58-.62v-10A.6.6,0,0,1,232.89,121.58Z"/></g><path class="cls-22" d="M42.86,210.59c10,0,18.15-8.79,18.15-19.56s-8.16-19.57-18.15-19.57S24.71,180.25,24.71,191,32.86,210.59,42.86,210.59Z"/><g class="cls-23"><path class="cls-19" d="M71.25,208.48a1.28,1.28,0,0,0,.63-1.11v-1.25a6.49,6.49,0,0,0-1.4-1.87,1.25,1.25,0,0,0-.66-.71,1.22,1.22,0,0,0-.66-.71,1.19,1.19,0,0,0-.66-.71,1.14,1.14,0,0,0-.66-.71A31789738251444.22,31789738251444.22,0,0,0,66.52,200a1.15,1.15,0,0,0-.65-.71,1.19,1.19,0,0,0-.66-.71,1.19,1.19,0,0,0-.66-.71,1.24,1.24,0,0,0-.66-.72,1.25,1.25,0,0,0-.66-.71,1.25,1.25,0,0,0-.66-.71,1.25,1.25,0,0,0-.66-.71,1.25,1.25,0,0,0-.66-.71,1.25,1.25,0,0,0-.66-.71,1.25,1.25,0,0,0-.66-.71,1.19,1.19,0,0,0-.66-.71,1.16,1.16,0,0,0-.66-.71,1.14,1.14,0,0,0-.66-.71,1.15,1.15,0,0,0-.65-.71,1.19,1.19,0,0,0-.66-.71,1.19,1.19,0,0,0-.66-.71,1.19,1.19,0,0,0-.66-.71,1.19,1.19,0,0,0-.66-.71,1.24,1.24,0,0,0-.66-.72,1.25,1.25,0,0,0-.66-.71,1.25,1.25,0,0,0-.66-.71,1.16,1.16,0,0,0-1.08-.79H35.43a1.2,1.2,0,0,0-1.16,1.24v1.25a1.28,1.28,0,0,0,.63,1.11L35,188a1.27,1.27,0,0,0,.53.63l.13.08a1.23,1.23,0,0,0,.53.63l.13.08a1.23,1.23,0,0,0,.53.63l.13.08a1.23,1.23,0,0,0,.53.63l.13.08a1.41,1.41,0,0,0,.19.34L34.35,189l-.08-.05V198a1.27,1.27,0,0,0,.74,1.16,1.25,1.25,0,0,0,.66.71,1.25,1.25,0,0,0,.66.71,1.25,1.25,0,0,0,.66.71,1.25,1.25,0,0,0,.66.71,1.25,1.25,0,0,0,.66.71,1.25,1.25,0,0,0,.66.71,1.25,1.25,0,0,0,.66.71,1.22,1.22,0,0,0,.66.71,1.16,1.16,0,0,0,.66.71,1.14,1.14,0,0,0,.66.71,1.15,1.15,0,0,0,.65.71,1.19,1.19,0,0,0,.66.71,1.19,1.19,0,0,0,.66.71,1.19,1.19,0,0,0,.66.71,1.24,1.24,0,0,0,.66.72,1.25,1.25,0,0,0,.66.71,1.25,1.25,0,0,0,.66.71,1.25,1.25,0,0,0,.66.71,1.25,1.25,0,0,0,.66.71,1.25,1.25,0,0,0,.66.71,1.25,1.25,0,0,0,.66.71,1.25,1.25,0,0,0,.66.71,1.16,1.16,0,0,0,.66.71,1.16,1.16,0,0,0,.66.71,1.15,1.15,0,0,0,.65.71,1.19,1.19,0,0,0,.66.71,1.19,1.19,0,0,0,.66.71,1.19,1.19,0,0,0,.66.71,1.17,1.17,0,0,0,1.08.8H70.72a1.21,1.21,0,0,0,1.16-1.24v-9.06l-.08,0-.58.36v-1.12l-.08.05-.58.36v-.32Z"/><path class="cls-9" d="M52.1,188.2v9.06A1.2,1.2,0,0,1,51,198.5H34.77a1.21,1.21,0,0,1-1.16-1.24V188.2l.08.05,8,4.94a2.15,2.15,0,0,0,2.29,0l8-4.94.08-.05Zm-9.24,4.07a1.1,1.1,0,0,0,.57-.16l8-5a1.26,1.26,0,0,0,.63-1.11V184.8A1.2,1.2,0,0,0,51,183.56H34.77a1.2,1.2,0,0,0-1.16,1.24v1.25a1.28,1.28,0,0,0,.63,1.11l8,5A1.13,1.13,0,0,0,42.86,192.27Z"/></g><path class="cls-20" d="M146.4,328.91c10,0,18.16-8.78,18.16-19.56s-8.16-19.57-18.16-19.57-18.15,8.79-18.15,19.57S136.41,328.91,146.4,328.91Z"/><g class="cls-24"><path class="cls-19" d="M172.37,323.28c-.21-.24-.43-.48-.66-.71s-.42-.48-.65-.71-.43-.48-.66-.71-.43-.48-.66-.71-.43-.48-.66-.71-.43-.48-.66-.71-.43-.48-.66-.71a31789738251515.37,31789738251515.37,0,0,1-1.32-1.42,8.94,8.94,0,0,0-.66-.71,31789738251513.86,31789738251513.86,0,0,1-1.32-1.42,8.94,8.94,0,0,0-.66-.71,139.59,139.59,0,0,1-1.32-1.43c-.2-.24-.42-.48-.65-.71s-.43-.48-.66-.71-.43-.48-.66-.71-.43-.48-.66-.71-.43-.48-.66-.71-.43-.48-.66-.71-.43-.48-.66-.71a8.94,8.94,0,0,0-.66-.71,8.94,8.94,0,0,0-.66-.71,8.94,8.94,0,0,0-.66-.71,8.94,8.94,0,0,0-.66-.71,31789738251507.62,31789738251507.62,0,0,1-1.32-1.42,8.93,8.93,0,0,0-6.85-3.3c-5.1,0-9.24,4.47-9.24,10a10.27,10.27,0,0,0,3.05,7.38,31789738251385.1,31789738251385.1,0,0,1,1.32,1.42q.31.38.66.72c.21.24.43.48.66.71s.43.48.66.71.43.48.66.71.43.48.66.71.43.48.66.71.43.48.66.71a8.81,8.81,0,0,0,.66.71,7.3,7.3,0,0,0,.65.71,31789738251506,31789738251506,0,0,0,1.32,1.42,31789738251379,31789738251379,0,0,1,1.32,1.42,31789738251381.55,31789738251381.55,0,0,0,1.32,1.42q.31.38.66.72c.21.24.43.48.66.71s.43.48.66.71.43.48.66.71.43.48.66.71.43.48.66.71a7.31,7.31,0,0,0,.66.71,8.67,8.67,0,0,0,.65.71,47684607377244.86,47684607377244.86,0,0,0,2,2.13,8.92,8.92,0,0,0,6.85,3.29c5.11,0,9.25-4.46,9.25-10A10.32,10.32,0,0,0,172.37,323.28Z"/><path class="cls-9" d="M146.4,299.38c-5.1,0-9.24,4.47-9.24,10s4.14,10,9.24,10,9.25-4.46,9.25-10-4.14-10-9.25-10ZM144.09,305a.6.6,0,0,1,.58-.62.55.55,0,0,1,.37.14l5.43,4.31h0a.65.65,0,0,1,.27.53.63.63,0,0,1-.27.52h0L145,314.18a.51.51,0,0,1-.37.15.6.6,0,0,1-.58-.62Z"/></g><path class="cls-20" d="M146.4,98.4c10,0,18.16-8.78,18.16-19.56S156.4,59.27,146.4,59.27s-18.15,8.79-18.15,19.57S136.41,98.4,146.4,98.4Z"/><g class="cls-25"><path class="cls-19" d="M174.54,91.69a1.88,1.88,0,0,0-.66-.71,1.81,1.81,0,0,0-.66-.71,63579476502802.2,63579476502802.2,0,0,1-1.32-1.42,1.84,1.84,0,0,0-.66-.72,63579476502945.89,63579476502945.89,0,0,0-1.32-1.42,1.8,1.8,0,0,0-.66-.71,1.8,1.8,0,0,0-.66-.71,1.78,1.78,0,0,0-.65-.71,63579476502809.67,63579476502809.67,0,0,1-1.32-1.42,63579476502809.62,63579476502809.62,0,0,1-1.32-1.42,1.88,1.88,0,0,0-.66-.71,63579476502963.27,63579476502963.27,0,0,0-1.32-1.42A31789738251450.44,31789738251450.44,0,0,1,162,78.19a1.68,1.68,0,0,0-.66-.71,1.77,1.77,0,0,0-.66-.72,63579476502962.8,63579476502962.8,0,0,0-1.32-1.42,1.85,1.85,0,0,0-.65-.71,2,2,0,0,0-.66-.71,63579476502962.23,63579476502962.23,0,0,0-1.32-1.42,1.88,1.88,0,0,0-.66-.71,1.72,1.72,0,0,0-1.51-1h-15a1.81,1.81,0,0,0-1.73,1.87v10a1.88,1.88,0,0,0,.89,1.62,1.74,1.74,0,0,0,.66.71,1.77,1.77,0,0,0,.66.72,63579476502819,63579476502819,0,0,0,1.32,1.42,1.8,1.8,0,0,0,.66.71,1.74,1.74,0,0,0,.66.71,1.78,1.78,0,0,0,.65.71,63579476502955,63579476502955,0,0,1,1.32,1.42A63579476502808.46,63579476502808.46,0,0,1,146,92.1a63579476502814.37,63579476502814.37,0,0,0,1.32,1.42,63579476502815.83,63579476502815.83,0,0,0,1.32,1.42,1.68,1.68,0,0,0,.66.71,1.77,1.77,0,0,0,.66.72,31789738251438.23,31789738251438.23,0,0,1,1.32,1.42,1.85,1.85,0,0,0,.65.71,31789738251436.71,31789738251436.71,0,0,1,1.32,1.42,63579476502957.32,63579476502957.32,0,0,1,1.32,1.42,63579476502958,63579476502958,0,0,1,1.32,1.42,63579476502957.16,63579476502957.16,0,0,1,1.32,1.42,1.72,1.72,0,0,0,1.5,1h3.82a.6.6,0,0,0,.08.08.47.47,0,0,0,.22.09l.27.44a.58.58,0,0,0,.17.18.47.47,0,0,0,.22.09l.27.44a.69.69,0,0,0,.16.18.5.5,0,0,0,.23.09l.27.44a.55.55,0,0,0,.16.18.67.67,0,0,0,.23.1l.27.43a.55.55,0,0,0,.16.18.67.67,0,0,0,.23.1l.27.43a.55.55,0,0,0,1,0l2.14-3.46h4.89a1.81,1.81,0,0,0,1.74-1.87v-10A1.88,1.88,0,0,0,174.54,91.69Z"/><path class="cls-9" d="M140.05,76.35h12.71a.62.62,0,0,1,0,1.24H140.05a.62.62,0,0,1,0-1.24Zm0-3.12h12.71a.63.63,0,0,1,0,1.25H140.05a.6.6,0,0,1-.58-.62.61.61,0,0,1,.58-.63Zm0,6.23h12.71a.63.63,0,0,1,0,1.25H140.05a.63.63,0,0,1,0-1.25Zm-1.16,4.36h4.89l2.14,3.45a.69.69,0,0,0,.16.18.56.56,0,0,0,.81-.17L149,83.82h4.9A1.81,1.81,0,0,0,155.65,82V72a1.81,1.81,0,0,0-1.73-1.87h-15A1.81,1.81,0,0,0,137.16,72V82A1.81,1.81,0,0,0,138.89,83.82Z"/></g><ellipse class="cls-4" cx="222.82" cy="293.86" rx="18.15" ry="19.57"/><g class="cls-26"><path class="cls-19" d="M251.11,309.66a1.25,1.25,0,0,0-.66-.71,1.25,1.25,0,0,0-.66-.71,1.22,1.22,0,0,0-.66-.71,1.22,1.22,0,0,0-.66-.71,1.19,1.19,0,0,0-.66-.71,1.19,1.19,0,0,0-.66-.71,1.19,1.19,0,0,0-.66-.71,1.19,1.19,0,0,0-.66-.71,1.19,1.19,0,0,0-.66-.71,1.14,1.14,0,0,0-.66-.71,1.18,1.18,0,0,0-.66-.72,1.2,1.2,0,0,0-.65-.71,1.25,1.25,0,0,0-.66-.71,1.25,1.25,0,0,0-.66-.71,1.25,1.25,0,0,0-.66-.71,1.25,1.25,0,0,0-.66-.71,1.25,1.25,0,0,0-.66-.71,1.25,1.25,0,0,0-.66-.71,1.22,1.22,0,0,0-.66-.71,1.19,1.19,0,0,0-.66-.71,1.19,1.19,0,0,0-.66-.71,1.19,1.19,0,0,0-.66-.71,1.14,1.14,0,0,0-.66-.71,31789738251542.15,31789738251542.15,0,0,1-1.32-1.42,1.19,1.19,0,0,0-.65-.72,31789738251542,31789738251542,0,0,1-1.32-1.42,1.17,1.17,0,0,0-1.08-.79h-.68a1.07,1.07,0,0,0-.35-.25l-.1-.17a1.13,1.13,0,0,0-.56-.54l-.1-.17a1.13,1.13,0,0,0-.56-.54l-.1-.17a1.15,1.15,0,0,0-1-.66h-4.05a1.13,1.13,0,0,0-1,.58L222,289h-1.9a.59.59,0,0,0-.56-.54h-.08v-.09a.6.6,0,0,0-.58-.62h-1.73a.6.6,0,0,0-.58.62V289H215.4a1.21,1.21,0,0,0-1.16,1.24v10a1.25,1.25,0,0,0,.74,1.16,15894869125723.47,15894869125723.47,0,0,0,1.32,1.42,139.59,139.59,0,0,0,1.32,1.43,31789738251351.86,31789738251351.86,0,0,1,1.32,1.42,1.19,1.19,0,0,0,.66.71,1.2,1.2,0,0,0,.65.71,1.25,1.25,0,0,0,.66.71,1.22,1.22,0,0,0,.66.71,1.22,1.22,0,0,0,.66.71,1.22,1.22,0,0,0,.66.71,15894869125919.14,15894869125919.14,0,0,1,1.32,1.42,1.19,1.19,0,0,0,.66.71,1.19,1.19,0,0,0,.66.71,1.19,1.19,0,0,0,.66.71,1.19,1.19,0,0,0,.66.71,139.59,139.59,0,0,0,1.32,1.43,1.2,1.2,0,0,0,.65.71,1.25,1.25,0,0,0,.66.71,15894869125517.66,15894869125517.66,0,0,0,1.32,1.42,1.22,1.22,0,0,0,.66.71,1.22,1.22,0,0,0,.66.71,1.22,1.22,0,0,0,.66.71,1.19,1.19,0,0,0,.66.71,1.16,1.16,0,0,0,1.07.8h16.18a1.21,1.21,0,0,0,1.16-1.25v-10A1.25,1.25,0,0,0,251.11,309.66Z"/><path class="cls-9" d="M214.74,288.25h1.15v-.62a.6.6,0,0,1,.58-.62h1.73a.6.6,0,0,1,.58.62v.62h2.54l1.1-1.9a1.13,1.13,0,0,1,1-.58h4a1.14,1.14,0,0,1,1,.65l1.07,1.84h1.38a1.21,1.21,0,0,1,1.16,1.25v10a1.21,1.21,0,0,1-1.16,1.25H214.74a1.21,1.21,0,0,1-1.16-1.25v-10a1.21,1.21,0,0,1,1.16-1.25Zm10.68,3.12a2.81,2.81,0,1,0,2.6,2.8,2.71,2.71,0,0,0-2.6-2.8Zm-9.53-1.25a.61.61,0,0,0-.58.63h0a.6.6,0,0,0,.58.62h2.89a.6.6,0,0,0,.58-.62h0a.61.61,0,0,0-.58-.63Zm9.53-.62a4.68,4.68,0,1,0,4.34,4.67A4.51,4.51,0,0,0,225.42,289.5Z"/></g><path class="cls-17" d="M65.35,131.76c10,0,18.16-8.79,18.16-19.57S75.35,92.63,65.35,92.63,47.2,101.41,47.2,112.19,55.36,131.76,65.35,131.76Z"/><g class="cls-27"><path class="cls-19" d="M93,126.87c-.11-.11-.22-.23-.34-.33s-.21-.26-.32-.38-.22-.23-.34-.33-.21-.26-.32-.38a3.51,3.51,0,0,0-.34-.33c-.1-.13-.21-.26-.32-.38a3.51,3.51,0,0,0-.34-.33c-.1-.13-.2-.26-.31-.38a3.61,3.61,0,0,0-.35-.33c-.1-.13-.2-.26-.31-.38s-.23-.23-.35-.34-.2-.25-.31-.37-.23-.23-.35-.34-.2-.25-.31-.37-.23-.23-.35-.34-.2-.25-.31-.37-.23-.23-.35-.34-.2-.25-.31-.37-.23-.23-.35-.34-.2-.25-.31-.37-.23-.23-.35-.34-.2-.25-.31-.37-.23-.23-.35-.34-.2-.25-.31-.37a3.76,3.76,0,0,0-.35-.34,2.76,2.76,0,0,0-.31-.37,3.76,3.76,0,0,0-.35-.34,2.76,2.76,0,0,0-.31-.37c-.11-.12-.22-.23-.34-.34s-.21-.26-.32-.38-.22-.23-.34-.33-.21-.26-.32-.38-.22-.23-.34-.33a3.79,3.79,0,0,0-.32-.38,3.51,3.51,0,0,0-.34-.33c-.1-.13-.2-.26-.31-.38a3.61,3.61,0,0,0-.35-.33c-.1-.13-.2-.26-.31-.38a3.61,3.61,0,0,0-.35-.33c-.1-.13-.2-.26-.31-.38s-.23-.23-.35-.34-.2-.25-.31-.37-.23-.23-.35-.34-.2-.25-.31-.37-.23-.23-.35-.34-.2-.25-.31-.37-.23-.23-.35-.34-.2-.25-.31-.37-.23-.23-.35-.34-.2-.25-.31-.37-.23-.23-.35-.34a3.57,3.57,0,0,0-.31-.37,3.76,3.76,0,0,0-.35-.34,3.57,3.57,0,0,0-.31-.37c-.11-.12-.22-.23-.34-.34a3.87,3.87,0,0,0-.32-.37c-.11-.12-.22-.23-.34-.34a3.87,3.87,0,0,0-.32-.37,4.4,4.4,0,0,0-3.26-1.46,4.28,4.28,0,0,0-1.78.38,4.63,4.63,0,0,0-1.51,1.09L66,107.73l-1.34-1.45a4.49,4.49,0,0,0-1.5-1.09,4.28,4.28,0,0,0-1.78-.38,4.44,4.44,0,0,0-3.27,1.46,5.18,5.18,0,0,0-1.35,3.52,5.23,5.23,0,0,0,.36,1.91,4.88,4.88,0,0,0,1,1.59c2.5,2.7,5,5.42,7.47,8.12a0,0,0,0,1,0,0l.65.7h0l.65.7h0l.64.7h0l.64.7h0l.64.7h0l.64.7h0l.64.7h0l.64.7h0l.65.7a0,0,0,0,0,0,0l.65.7a0,0,0,0,0,0,0l.65.7h0l.65.7h0l.65.71h0l.65.7h0l.65.7a0,0,0,0,1,0,0c.22.23.43.46.64.7h0l.64.7h0l.64.7h0l.64.7h0l.64.7h0l.64.7h0c.21.23.42.47.64.7a0,0,0,0,0,0,0l.65.7h0l.65.7h0l.65.7a0,0,0,0,0,0,0l.65.7h0l.65.7h0l.65.71h0l.65.71a.54.54,0,0,0,.43.18.55.55,0,0,0,.44-.18c2.5-2.7,5-5.42,7.47-8.12a5.06,5.06,0,0,0,1-1.59,5.27,5.27,0,0,0,.36-1.91A5.18,5.18,0,0,0,93,126.87Z"/><path class="cls-9" d="M65.35,107l1.34-1.44a4.63,4.63,0,0,1,1.51-1.09A4.28,4.28,0,0,1,70,104.1a4.43,4.43,0,0,1,3.26,1.45,5.18,5.18,0,0,1,1.36,3.53,5.27,5.27,0,0,1-.36,1.91,4.88,4.88,0,0,1-1,1.59c-2.5,2.7-5,5.42-7.47,8.12a.55.55,0,0,1-.44.18.54.54,0,0,1-.43-.18c-2.5-2.7-5-5.42-7.47-8.12a4.88,4.88,0,0,1-1-1.59,5.28,5.28,0,0,1,1-5.44,4.46,4.46,0,0,1,3.27-1.45,4.28,4.28,0,0,1,1.78.38,4.49,4.49,0,0,1,1.5,1.09Z"/></g><path class="cls-17" d="M255.68,223c10,0,18.15-8.79,18.15-19.57s-8.15-19.56-18.15-19.56-18.15,8.79-18.15,19.56S245.69,223,255.68,223Z"/><g class="cls-28"><path class="cls-19" d="M282.26,228.57a3.44,3.44,0,0,0-.66-.71,3.44,3.44,0,0,0-.66-.71,31789738251601.44,31789738251601.44,0,0,1-1.32-1.42A3.49,3.49,0,0,0,279,225a3.71,3.71,0,0,0-.66-.71,31789738251599.19,31789738251599.19,0,0,1-1.32-1.42,2.88,2.88,0,0,0-.52-.58l2-1.33a3,3,0,0,0,1.91.69,3.31,3.31,0,0,0,3.18-3.43,3.5,3.5,0,0,0-1.29-2.74,63579476502945.22,63579476502945.22,0,0,1-2.64-2.84,3.44,3.44,0,0,0-.66-.71,15894869125709.09,15894869125709.09,0,0,0-1.32-1.42,3,3,0,0,0-.66-.71,3,3,0,0,0-.66-.72,3.37,3.37,0,0,0-.65-.71,3.44,3.44,0,0,0-.66-.71,3.44,3.44,0,0,0-.66-.71,3.44,3.44,0,0,0-.66-.71,3.44,3.44,0,0,0-.66-.71,3.44,3.44,0,0,0-.66-.71,31789738251594.58,31789738251594.58,0,0,1-1.32-1.42,3.44,3.44,0,0,0-.66-.71,3.18,3.18,0,0,0-.66-.71,3.18,3.18,0,0,0-.66-.71,15894869125710.33,15894869125710.33,0,0,0-1.32-1.42,3,3,0,0,0-.66-.71,3.19,3.19,0,0,0-.65-.72,3.71,3.71,0,0,0-.66-.71,47684607377175.48,47684607377175.48,0,0,1-2-2.13,3.1,3.1,0,0,0-2.55-1.39,3.47,3.47,0,0,0-3.12,4.05l-4.78,3.18a3.07,3.07,0,0,0-1.92-.69,3.31,3.31,0,0,0-3.18,3.42,3.53,3.53,0,0,0,1.3,2.75,3.18,3.18,0,0,0,.66.71,3,3,0,0,0,.66.71,3.14,3.14,0,0,0,.65.71,3.44,3.44,0,0,0,.66.71,3.44,3.44,0,0,0,.66.71,3.44,3.44,0,0,0,.66.71,3.44,3.44,0,0,0,.66.71,3.44,3.44,0,0,0,.66.71,3.44,3.44,0,0,0,.66.71,3.44,3.44,0,0,0,.66.71,31789738251297.86,31789738251297.86,0,0,1,1.32,1.42,3.23,3.23,0,0,0,.66.72,3.42,3.42,0,0,0,.66.71,31789738251567.27,31789738251567.27,0,0,1,1.32,1.42,3.14,3.14,0,0,0,.65.71,15894869125710.24,15894869125710.24,0,0,1,1.32,1.42,31789738251296.13,31789738251296.13,0,0,1,1.32,1.42,15894869125708.69,15894869125708.69,0,0,1,1.32,1.42,3.44,3.44,0,0,0,.66.71,3.44,3.44,0,0,0,.66.71,3.44,3.44,0,0,0,.66.71,3.18,3.18,0,0,0,.66.71,3.23,3.23,0,0,0,.66.72,3.1,3.1,0,0,0,2.54,1.39,3,3,0,0,0,1.87-.66l.13.12a31789738251595.8,31789738251595.8,0,0,0,1.32,1.42,3.44,3.44,0,0,0,.66.71,3.44,3.44,0,0,0,.66.71,3.44,3.44,0,0,0,.66.71,3.44,3.44,0,0,0,.66.71,3.44,3.44,0,0,0,.66.71,3.18,3.18,0,0,0,.66.71,3.11,3.11,0,0,0,2.54,1.4,3.31,3.31,0,0,0,3.18-3.43A3.48,3.48,0,0,0,282.26,228.57Z"/><path class="cls-9" d="M260.59,193.49a3.3,3.3,0,0,0-3.17,3.42,4.34,4.34,0,0,0,.05.63l-4.78,3.18a3.07,3.07,0,0,0-1.92-.69,3.44,3.44,0,0,0,0,6.85,3.07,3.07,0,0,0,1.92-.69l4.78,3.18a4.21,4.21,0,0,0-.05.62,3.18,3.18,0,1,0,3.17-3.42,3,3,0,0,0-1.91.69l-4.78-3.18a4.34,4.34,0,0,0,0-.63,4.21,4.21,0,0,0,0-.62l4.78-3.18a3,3,0,0,0,1.91.69,3.43,3.43,0,0,0,0-6.85Z"/></g></g></g></svg>