<svg id="Layer_1" data-name="Layer 1" xmlns="http://www.w3.org/2000/svg" viewBox="0 0 577 271.83"><defs><style>.cls-1,.cls-5{isolation:isolate;}.cls-1{font-size:65.59px;font-family:ClickClack;}.cls-2{letter-spacing:-0.05em;}.cls-3{letter-spacing:-0.05em;}.cls-4{fill:none;}.cls-5{opacity:0.63;}</style></defs><text class="cls-1" transform="translate(0 227.84) scale(1.06 1)">PUPPY <tspan class="cls-2" x="232.59" y="0">A</tspan><tspan class="cls-3" x="269.06" y="0">C</tspan><tspan x="302.12" y="0">ADEMY</tspan></text><rect class="cls-4" x="487.8" y="260.02" width="89.2" height="11.81"/><path d="M420.8,297.63a4,4,0,0,0-2.65.68,13.88,13.88,0,0,0-2.28,1.74,18.31,18.31,0,0,0-3.42,4.21,28.67,28.67,0,0,1-3-.53,58.28,58.28,0,0,1-8.91-3,31.8,31.8,0,0,1-5.63-3,48,48,0,0,1-8.3-7.45c-1.44-1.49-3-2.9-4.43-4.36s-2.81-2.9-4.32-4.27a31.28,31.28,0,0,0-6.52-4.57,25,25,0,0,0-6.85-2.6,29.33,29.33,0,0,0-10.65.06,38.22,38.22,0,0,0-6.15,1.56,49.08,49.08,0,0,0-7.18,3,43.17,43.17,0,0,0-12.6,9.82,28.42,28.42,0,0,0-3.61,5.15,30.64,30.64,0,0,0-2.29,5.84c-1.41,4.95-1.64,10.43.71,15.17a17.47,17.47,0,0,0,8.54,7.17,21.94,21.94,0,0,0,9.52,1.3,14.12,14.12,0,0,0,4.95-1.21A14.62,14.62,0,0,0,349,320a11.53,11.53,0,0,0,2.41-3c1.21-2.53.89-5.37.74-8.06-.37-5.88-.92-11.74-1.24-17.62-.91,5.73-1.47,11.51-1.84,17.29-.11,1.64-.2,3.27-.28,4.91A19.23,19.23,0,0,1,348,319s0,.08,0,.12a21.14,21.14,0,0,1-6.85.58A18.33,18.33,0,0,1,329,314.15c-5.27-5.33-4.32-14.06-1.78-20.62.06-.13.2-.48.26-.61a22,22,0,0,1,1.45-2.81l.15-.24c.3-.45.6-.89.94-1.32l.1-.13c.32-.4.66-.79,1-1.17l.4-.41s0,0,.11-.1l.24-.22.75-.64a21.7,21.7,0,0,1,3.84-2.61,43,43,0,0,1,16.56-5.18,22.64,22.64,0,0,1,9.15.68,26.86,26.86,0,0,1,5.52,2.39,31.15,31.15,0,0,1,6.25,4.5c1.4,1.28,2.69,2.65,4,4s2.45,2.36,3.66,3.57c1.88,1.87,3.64,3.86,5.64,5.63a32.19,32.19,0,0,0,5.85,4.11,49.84,49.84,0,0,0,7.71,3.24,40.44,40.44,0,0,0,9.51,2.12h.16a83.39,83.39,0,0,0-3.77,12.61,30.17,30.17,0,0,1-1.53,5.62,13.48,13.48,0,0,1-.81,1.57c-.16.09-.24.11-.63.32a48.8,48.8,0,0,1-11,3.33c-7.59,1.37-9.78,1-16.64-1.88-.67-.3-1.37-.59-2.07-.89.12-.61.24-1.21.37-1.82.56-2.5,0-8.71-3-9.58-1.76-.57-3.81,1.47-4.93,2.53s-2.26,2.67-2.12,4.36a12.48,12.48,0,0,0,.54,2.76,8.9,8.9,0,0,0,1.59,3.31,9.79,9.79,0,0,0,3.35,2.17l-.12.6c-1,4.85-1.92,9.72-2.56,14.63-.83,6.71-1.35,13.45-2.32,20.15a112.07,112.07,0,0,0-.87,15.32c-.06,5.22,0,10.45-.07,15.67,0,2.39-.31,4.78-.52,7.16-.32,3.55-.56,7.11-.58,10.67,0,1.42-.05,2.85,0,4.27-.69.56-1.35,1.14-2,1.71l-.3.26-.05,0c-.21.18-.43.35-.65.52l-.12.09-.44.32-.79.49a9.8,9.8,0,0,1-3.07,1.26l-.1,0-.07,0a1.79,1.79,0,0,1-.34-.8l-.06-.3c-.06-.31-.09-.62-.13-.93-.14-1.31-.19-2.62-.24-3.93-.2-8.56-.4-17.13-.29-25.69.05-3.88.2-7.76.06-11.64-.31-5.15-.95-10.28-1.64-15.39a84.51,84.51,0,0,0-2.28-11.44,32,32,0,0,0-2.52-6.69,16.39,16.39,0,0,0-2.45-3.81c-4.07-4.4-7.58-4.73-13.54-5.07a39.46,39.46,0,0,0-14.19,1.52,29.81,29.81,0,0,0-4,1.66,47.51,47.51,0,0,0-5.33,2.94c-2.6,1.68-5.21,3.37-7.63,5.28a59.06,59.06,0,0,0-8.5,8.22,32.3,32.3,0,0,0-4,6.14c-1.61,3.45-2.82,7.05-4.15,10.6a104.87,104.87,0,0,0-4.43,14.84,102,102,0,0,0-1.58,19,95.17,95.17,0,0,0,.46,11.57,49.22,49.22,0,0,0,.57,5.68.89.89,0,0,0,.19.52,3.56,3.56,0,0,0,1.25.38c.92.17,1.84.31,2.77.4,5.44.47,10.92.37,16.38.42,3.17,0,6.33.05,9.5-.11,4.31-.28,8.62-.6,12.88-1.23,3.18-.5,6.55-.1,9.57-1.31a11,11,0,0,0,2.32-1.67,11.32,11.32,0,0,0,3.66-6.47,10.21,10.21,0,0,0-.39-3.68c-.72-2.54-1.6-5.52-4.05-7.12a12.54,12.54,0,0,0-4.48-1.44A37,37,0,0,0,336.65,392a50,50,0,0,0,1.69-11.26,41.17,41.17,0,0,0-.1-8.38,23,23,0,0,0-5.34-11.81A19,19,0,0,0,328,356.2a17.68,17.68,0,0,0-3.84-1.49,21.92,21.92,0,0,0-3.94-.75,16.68,16.68,0,0,0-8.21,1.71c-6.16,3.07-10,8.78-13.07,14.36a33.72,33.72,0,0,0-3.12,7.49,54.29,54.29,0,0,0-1,16.13c.21,3.37.57,6.74,1,10.09q.34-3.4.68-6.8c.73-7.87,1.7-18.12,4.06-24.6a49.24,49.24,0,0,1,5.81-10.62,17.64,17.64,0,0,1,1.37-1.7l0,0c.41-.26.82-.51,1.26-.74a15.51,15.51,0,0,1,8.5-1.35,20,20,0,0,1,7.38,2.64,23.86,23.86,0,0,1,5.15,5.33,21.91,21.91,0,0,1,4.16,11,51.87,51.87,0,0,1-.07,8,47.85,47.85,0,0,1-2,11.66,34.5,34.5,0,0,1-4.05,8.16l-1,1.46-.73-.09c-2.88-.3-4.93-.26-7.3,1.48-1.65,1.22-4.48,3.7-4.34,5.66a1.51,1.51,0,0,0,1.18,1.21,3.2,3.2,0,0,0,2.24-.08,13.4,13.4,0,0,0,3-1.47,37.33,37.33,0,0,0,3.6-2.68,15.52,15.52,0,0,1,3.23.87c2.19.82,3.42,2.83,4.18,4.78a19.37,19.37,0,0,1,1.17,4.05,6.8,6.8,0,0,1-.2,3.38l-.09.28c-.43.08-.87.13-1.3.17-1.66.18-3.35.15-5,.36-2.86.39-5.73.76-8.61.95a101.59,101.59,0,0,1-10.46.5c-6.15,0-12.32.05-18.46-.25a30.57,30.57,0,0,1-5.36-.69,1,1,0,0,1-.47-.23.38.38,0,0,1-.08-.17c-.09-.47-.18-.93-.25-1.4-.13-1-.11-2-.2-3-.18-2-.38-4.06-.47-6.09-.14-2.38-.11-4.77-.09-7.16,0-2.74.07-5.49.26-8.23a91.4,91.4,0,0,1,1.43-10.92,116.09,116.09,0,0,1,4.82-15.67c1.28-3.33,1.95-5.53,3.29-8.38a24.22,24.22,0,0,1,5.63-7.7h0c3.08-2.83,4.19-3.47,9-6.57a47.72,47.72,0,0,1,7.15-3.49,37.24,37.24,0,0,1,9.64-1.59,64.44,64.44,0,0,1,7.22.25,18.17,18.17,0,0,1,5.76,1.23,15.09,15.09,0,0,1,3.17,2.08,14.37,14.37,0,0,1,3.71,4.7A31.83,31.83,0,0,1,345.4,357c2.35,7.25,3.14,14.46,4,22.23.26,2.45.51,4.9.6,7.36.09,3.43,0,6.86-.07,10.28-.09,4.11,0,8.23,0,12.34.07,4.82.16,9.65.3,14.47a38.89,38.89,0,0,0,.33,4.3,6.88,6.88,0,0,0,.29,1.27,1.25,1.25,0,0,0,.21.35.88.88,0,0,0,.76,0c4-1.05,7.18-3.71,10.12-6.31l.64-.54.12-.09.16-.12a19.83,19.83,0,0,0,.57,2.84c.49,1.82,1.5,3.89,3.71,4.28,4.25.7,9.11-2.09,12.23-4.52,1.56-1.2,7.07-5.87,4.48-7.69-1.83-1.17-6.64-1.31-9-1.39a15.16,15.16,0,0,0-7.88,2.12c-.11-1.94,0-3.89,0-5.82,0-3.39.31-6.77.61-10.14a73.81,73.81,0,0,0,.5-8.4c0-5.42,0-10.85.07-16.27,0-2.62.09-5.24.29-7.85s.55-5.12.91-7.66c.82-6.32,1.32-12.68,2.15-19,.43-3,1-6,1.54-9a27.76,27.76,0,0,0,7.56,2.21c5.68.52,16.9-2.26,21.67-5.09a17.89,17.89,0,0,0,6.46-6.53,21.05,21.05,0,0,0,2-5.89,99.2,99.2,0,0,1,2.73-10.27,7.77,7.77,0,0,0,2.83-.4c3.07-1,7.07-4.69,7.8-7.46C424.45,298.7,422.72,297.84,420.8,297.63ZM322.61,410a4.35,4.35,0,0,1-2.24.65,2,2,0,0,1-1.49-.91,16,16,0,0,1,3.39.05l.58.06Zm49.81,10a46.78,46.78,0,0,1,4.94.49,7.57,7.57,0,0,1,2.05.66,1.71,1.71,0,0,1,.81.85,1.84,1.84,0,0,1,0,.7,1.42,1.42,0,0,1-.05.16,2.1,2.1,0,0,1-.13.26l-.32.24-.15.11c-.38.25-.77.5-1.17.73A13.44,13.44,0,0,1,372,426c-3.26.08-4.37-3.12-4.86-5.58A16.59,16.59,0,0,1,372.42,420Zm-3.76-97.62a5.71,5.71,0,0,1,.9,1.59,10.08,10.08,0,0,1,.61,2.33,10.84,10.84,0,0,1-1.37-3.3C368.75,322.76,368.7,322.56,368.66,322.39Zm46.18-17.88a22.19,22.19,0,0,1,1.52-3.05h.35a3.66,3.66,0,0,1,1.05.16,4.51,4.51,0,0,1,1.47.69,1.67,1.67,0,0,1,.5,2l-.56.17A15,15,0,0,1,414.84,304.51Z" transform="translate(-78.82 -274.05)"/><path d="M375,292.19c-3.95-1.47-6.54,1.4-9.12,3.66a39.69,39.69,0,0,1,3.3-2.36,8.51,8.51,0,0,1,2-.8,15.33,15.33,0,0,1,2.94-.35c.43,0,.85,0,1.28,0Z" transform="translate(-78.82 -274.05)"/><path d="M394.08,310.78a13,13,0,0,0-2.08,1.91c-.16.18-1.13,1.34-.48,1.3a3.66,3.66,0,0,0,1.2-.64,13,13,0,0,0,2.08-1.91C396,310.06,395.59,309.67,394.08,310.78Z" transform="translate(-78.82 -274.05)"/><path d="M392.93,319.93a13,13,0,0,0-2.08,1.91c-.16.18-1.13,1.34-.48,1.3a3.66,3.66,0,0,0,1.2-.64,13,13,0,0,0,2.08-1.91C394.83,319.21,394.44,318.83,392.93,319.93Z" transform="translate(-78.82 -274.05)"/><path d="M401.77,317.82a13,13,0,0,0-2.08,1.91c-.16.18-1.13,1.34-.48,1.3a3.66,3.66,0,0,0,1.2-.64,13,13,0,0,0,2.08-1.91C403.67,317.1,403.28,316.72,401.77,317.82Z" transform="translate(-78.82 -274.05)"/><path class="cls-5" d="M420.8,297.63a4,4,0,0,0-2.65.68,13.88,13.88,0,0,0-2.28,1.74,18.31,18.31,0,0,0-3.42,4.21,28.67,28.67,0,0,1-3-.53,58.28,58.28,0,0,1-8.91-3,31.8,31.8,0,0,1-5.63-3,48,48,0,0,1-8.3-7.45c-1.44-1.49-3-2.9-4.43-4.36s-2.81-2.9-4.32-4.27a31.28,31.28,0,0,0-6.52-4.57,25,25,0,0,0-6.85-2.6,29.33,29.33,0,0,0-10.65.06,38.22,38.22,0,0,0-6.15,1.56,49.08,49.08,0,0,0-7.18,3,43.17,43.17,0,0,0-12.6,9.82,28.42,28.42,0,0,0-3.61,5.15,30.64,30.64,0,0,0-2.29,5.84c-1.41,4.95-1.64,10.43.71,15.17a17.47,17.47,0,0,0,8.54,7.17,21.94,21.94,0,0,0,9.52,1.3,14.12,14.12,0,0,0,4.95-1.21A14.62,14.62,0,0,0,349,320a11.53,11.53,0,0,0,2.41-3c1.21-2.53.89-5.37.74-8.06-.37-5.88-.92-11.74-1.24-17.62-.91,5.73-1.47,11.51-1.84,17.29-.11,1.64-.2,3.27-.28,4.91A19.23,19.23,0,0,1,348,319s0,.08,0,.12a21.14,21.14,0,0,1-6.85.58A18.33,18.33,0,0,1,329,314.15c-5.27-5.33-4.32-14.06-1.78-20.62.06-.13.2-.48.26-.61a22,22,0,0,1,1.45-2.81l.15-.24c.3-.45.6-.89.94-1.32l.1-.13c.32-.4.66-.79,1-1.17l.4-.41s0,0,.11-.1l.24-.22.75-.64a21.7,21.7,0,0,1,3.84-2.61,43,43,0,0,1,16.56-5.18,22.64,22.64,0,0,1,9.15.68,26.86,26.86,0,0,1,5.52,2.39,31.15,31.15,0,0,1,6.25,4.5c1.4,1.28,2.69,2.65,4,4s2.45,2.36,3.66,3.57c1.88,1.87,3.64,3.86,5.64,5.63a32.19,32.19,0,0,0,5.85,4.11,49.84,49.84,0,0,0,7.71,3.24,40.44,40.44,0,0,0,9.51,2.12h.16a83.39,83.39,0,0,0-3.77,12.61,30.17,30.17,0,0,1-1.53,5.62,13.48,13.48,0,0,1-.81,1.57c-.16.09-.24.11-.63.32a48.8,48.8,0,0,1-11,3.33c-7.59,1.37-9.78,1-16.64-1.88-.67-.3-1.37-.59-2.07-.89.12-.61.24-1.21.37-1.82.56-2.5,0-8.71-3-9.58-1.76-.57-3.81,1.47-4.93,2.53s-2.26,2.67-2.12,4.36a12.48,12.48,0,0,0,.54,2.76,8.9,8.9,0,0,0,1.59,3.31,9.79,9.79,0,0,0,3.35,2.17l-.12.6c-1,4.85-1.92,9.72-2.56,14.63-.83,6.71-1.35,13.45-2.32,20.15a112.07,112.07,0,0,0-.87,15.32c-.06,5.22,0,10.45-.07,15.67,0,2.39-.31,4.78-.52,7.16-.32,3.55-.56,7.11-.58,10.67,0,1.42-.05,2.85,0,4.27-.69.56-1.35,1.14-2,1.71l-.3.26-.05,0c-.21.18-.43.35-.65.52l-.12.09-.44.32-.79.49a9.8,9.8,0,0,1-3.07,1.26l-.1,0-.07,0a1.79,1.79,0,0,1-.34-.8l-.06-.3c-.06-.31-.09-.62-.13-.93-.14-1.31-.19-2.62-.24-3.93-.2-8.56-.4-17.13-.29-25.69.05-3.88.2-7.76.06-11.64-.31-5.15-.95-10.28-1.64-15.39a84.51,84.51,0,0,0-2.28-11.44,32,32,0,0,0-2.52-6.69,16.39,16.39,0,0,0-2.45-3.81c-4.07-4.4-7.58-4.73-13.54-5.07a39.46,39.46,0,0,0-14.19,1.52,29.81,29.81,0,0,0-4,1.66,47.51,47.51,0,0,0-5.33,2.94c-2.6,1.68-5.21,3.37-7.63,5.28a59.06,59.06,0,0,0-8.5,8.22,32.3,32.3,0,0,0-4,6.14c-1.61,3.45-2.82,7.05-4.15,10.6a104.87,104.87,0,0,0-4.43,14.84,102,102,0,0,0-1.58,19,95.17,95.17,0,0,0,.46,11.57,49.22,49.22,0,0,0,.57,5.68.89.89,0,0,0,.19.52,3.56,3.56,0,0,0,1.25.38c.92.17,1.84.31,2.77.4,5.44.47,10.92.37,16.38.42,3.17,0,6.33.05,9.5-.11,4.31-.28,8.62-.6,12.88-1.23,3.18-.5,6.55-.1,9.57-1.31a11,11,0,0,0,2.32-1.67,11.32,11.32,0,0,0,3.66-6.47,10.21,10.21,0,0,0-.39-3.68c-.72-2.54-1.6-5.52-4.05-7.12a12.54,12.54,0,0,0-4.48-1.44A37,37,0,0,0,336.65,392a50,50,0,0,0,1.69-11.26,41.17,41.17,0,0,0-.1-8.38,23,23,0,0,0-5.34-11.81A19,19,0,0,0,328,356.2a17.68,17.68,0,0,0-3.84-1.49,21.92,21.92,0,0,0-3.94-.75,16.68,16.68,0,0,0-8.21,1.71c-6.16,3.07-10,8.78-13.07,14.36a33.72,33.72,0,0,0-3.12,7.49,54.29,54.29,0,0,0-1,16.13c.21,3.37.57,6.74,1,10.09q.34-3.4.68-6.8c.73-7.87,1.7-18.12,4.06-24.6a49.24,49.24,0,0,1,5.81-10.62,17.64,17.64,0,0,1,1.37-1.7l0,0c.41-.26.82-.51,1.26-.74a15.51,15.51,0,0,1,8.5-1.35,20,20,0,0,1,7.38,2.64,23.86,23.86,0,0,1,5.15,5.33,21.91,21.91,0,0,1,4.16,11,51.87,51.87,0,0,1-.07,8,47.85,47.85,0,0,1-2,11.66,34.5,34.5,0,0,1-4.05,8.16l-1,1.46-.73-.09c-2.88-.3-4.93-.26-7.3,1.48-1.65,1.22-4.48,3.7-4.34,5.66a1.51,1.51,0,0,0,1.18,1.21,3.2,3.2,0,0,0,2.24-.08,13.4,13.4,0,0,0,3-1.47,37.33,37.33,0,0,0,3.6-2.68,15.52,15.52,0,0,1,3.23.87c2.19.82,3.42,2.83,4.18,4.78a19.37,19.37,0,0,1,1.17,4.05,6.8,6.8,0,0,1-.2,3.38l-.09.28c-.43.08-.87.13-1.3.17-1.66.18-3.35.15-5,.36-2.86.39-5.73.76-8.61.95a101.59,101.59,0,0,1-10.46.5c-6.15,0-12.32.05-18.46-.25a30.57,30.57,0,0,1-5.36-.69,1,1,0,0,1-.47-.23.38.38,0,0,1-.08-.17c-.09-.47-.18-.93-.25-1.4-.13-1-.11-2-.2-3-.18-2-.38-4.06-.47-6.09-.14-2.38-.11-4.77-.09-7.16,0-2.74.07-5.49.26-8.23a91.4,91.4,0,0,1,1.43-10.92,116.09,116.09,0,0,1,4.82-15.67c1.28-3.33,1.95-5.53,3.29-8.38a24.22,24.22,0,0,1,5.63-7.7h0c3.08-2.83,4.19-3.47,9-6.57a47.72,47.72,0,0,1,7.15-3.49,37.24,37.24,0,0,1,9.64-1.59,64.44,64.44,0,0,1,7.22.25,18.17,18.17,0,0,1,5.76,1.23,15.09,15.09,0,0,1,3.17,2.08,14.37,14.37,0,0,1,3.71,4.7A31.83,31.83,0,0,1,345.4,357c2.35,7.25,3.14,14.46,4,22.23.26,2.45.51,4.9.6,7.36.09,3.43,0,6.86-.07,10.28-.09,4.11,0,8.23,0,12.34.07,4.82.16,9.65.3,14.47a38.89,38.89,0,0,0,.33,4.3,6.88,6.88,0,0,0,.29,1.27,1.25,1.25,0,0,0,.21.35.88.88,0,0,0,.76,0c4-1.05,7.18-3.71,10.12-6.31l.64-.54.12-.09.16-.12a19.83,19.83,0,0,0,.57,2.84c.49,1.82,1.5,3.89,3.71,4.28,4.25.7,9.11-2.09,12.23-4.52,1.56-1.2,7.07-5.87,4.48-7.69-1.83-1.17-6.64-1.31-9-1.39a15.16,15.16,0,0,0-7.88,2.12c-.11-1.94,0-3.89,0-5.82,0-3.39.31-6.77.61-10.14a73.81,73.81,0,0,0,.5-8.4c0-5.42,0-10.85.07-16.27,0-2.62.09-5.24.29-7.85s.55-5.12.91-7.66c.82-6.32,1.32-12.68,2.15-19,.43-3,1-6,1.54-9a27.76,27.76,0,0,0,7.56,2.21c5.68.52,16.9-2.26,21.67-5.09a17.89,17.89,0,0,0,6.46-6.53,21.05,21.05,0,0,0,2-5.89,99.2,99.2,0,0,1,2.73-10.27,7.77,7.77,0,0,0,2.83-.4c3.07-1,7.07-4.69,7.8-7.46C424.45,298.7,422.72,297.84,420.8,297.63ZM322.61,410a4.35,4.35,0,0,1-2.24.65,2,2,0,0,1-1.49-.91,16,16,0,0,1,3.39.05l.58.06Zm49.81,10a46.78,46.78,0,0,1,4.94.49,7.57,7.57,0,0,1,2.05.66,1.71,1.71,0,0,1,.81.85,1.84,1.84,0,0,1,0,.7,1.42,1.42,0,0,1-.05.16,2.1,2.1,0,0,1-.13.26l-.32.24-.15.11c-.38.25-.77.5-1.17.73A13.44,13.44,0,0,1,372,426c-3.26.08-4.37-3.12-4.86-5.58A16.59,16.59,0,0,1,372.42,420Zm-3.76-97.62a5.71,5.71,0,0,1,.9,1.59,10.08,10.08,0,0,1,.61,2.33,10.84,10.84,0,0,1-1.37-3.3C368.75,322.76,368.7,322.56,368.66,322.39Zm46.18-17.88a22.19,22.19,0,0,1,1.52-3.05h.35a3.66,3.66,0,0,1,1.05.16,4.51,4.51,0,0,1,1.47.69,1.67,1.67,0,0,1,.5,2l-.56.17A15,15,0,0,1,414.84,304.51Z" transform="translate(-78.82 -274.05)"/></svg>